<?xml version="1.0" encoding="UTF-8" standalone="no"?>

<svg width="100" height="100" xmlns="http://www.w3.org/2000/svg">

  <defs>
    <linearGradient id="grad1" x1="0%" x2="100%" y1="0%" y2="0%">
      <stop offset="0%" stop-color="yellow" />
      <stop offset="100%" stop-color="red" />
    </linearGradient>
    <linearGradient id="grad2" x1="0%" y1="0%" x2="0%" y2="100%">
      <stop offset="0%" stop-color="yellow" />
      <stop offset="100%" stop-color="red" />
    </linearGradient>
    <radialGradient id="grad3" cx="50%" cy="50%" r="75%">
      <stop offset="0%" stop-color="red" />
      <stop offset="100%" stop-color="blue" />
    </radialGradient>
    <radialGradient id="grad4" cx="25%" cy="25%" r="85%" >
      <stop offset="0%" stop-color="red" />
      <stop offset="100%" stop-color="blue" />
    </radialGradient>
  </defs>
  
  <!-- Horizontal & vertical lines with opacity -->
  <path d="M 10 10 H 90 V 90 H 10 L 10 10" style="fill:red;opacity:30%;stroke:yellow; stroke-width:8" />

  <!-- Curves -->
  <path
    d="M 10 80 C 40 10, 65 10, 95 80 S 150 150, 180 80"
    style="stroke:green;fill:transparent;stroke-width:3" />
  
  <!-- Quad -->
  <path d="M 10 80 Q 95 10 180 80" style="stroke:white;stroke-width:5" />
  
  <!-- Arc -->
  <path
    d="M 10 315
       L 110 215
       A 30 50 0 0 1 162.55 162.45
       L 172.55 152.45
       A 30 50 -45 0 1 215.1 109.9
       L 315 10"
    style="stroke:yellow"
    fill="green"
    stroke-width="2"
    fill-opacity="0.5" />
  
  <!-- Rectangle With Rounded Corners -->
  <rect transform="translate(200,200)" width="150" height="150" x="10" y="10" rx="20" ry="20"
        style="fill:url(#grad1);stroke:black;stroke-width:5;opacity:0.5" />
  
  <!-- Circle with Border -->
  <circle transform="translate(400,200)" r="45" cx="50" cy="50" fill="url(#grad3)" stroke="yellow" stroke-width="3" />
  
  <!-- Ellipse -->
  <ellipse transform="translate(600,150)" rx="100" ry="50" cx="120" cy="80" style="fill:lime;stroke:green;stroke-width:3" />

  <!-- Polyline -->
  <polyline transform="translate(600,150)" points="0,0 50,150 100,75 150,50 200,140 250,140" style="fill:none;stroke:url(#grad1);stroke-width:4;" />

  <!-- Polygon With Six Sides -->
  <g transform="translate(50,350)" style="fill:url(#grad2);stroke:white;stroke-width:6" >
    <polygon points="150,15 258,77 258,202 150,265 42,202 42,77" />
  </g>
  
  <!-- Star -->
  <g transform="translate(600,200)" style="stroke:white;stroke-width:6">
    <path transform="scale(0.5)" style="fill:url(#grad3)" d="M849.54,487.32c-1.888-5.159-6.5-8.796-11.959-9.426l-182.482-20.864L573.493,294.94
		c-2.457-4.863-7.493-7.962-12.933-7.962c-5.465,0-10.482,3.099-12.933,7.962l-81.794,162.483l-181.931,27.334
		c-5.387,0.802-9.901,4.609-11.596,9.786c-1.707,5.178-0.315,10.936,3.534,14.776L406.069,639.12L383.47,818.739
		c-0.678,5.411,1.767,10.794,6.282,13.829c4.527,3.038,10.434,3.274,15.185,0.599l159.369-89.74l158.546,87.994
		c4.769,2.642,10.658,2.375,15.172-0.693c4.515-3.068,6.924-8.467,6.21-13.862l-23.96-181.462l126.179-133.167
		C850.229,498.241,851.409,492.482,849.54,487.32z"/>
  </g>

  <!-- LineCaps -->
  <g transform="translate(600,70)" >
    <line x1="1" y1="3" x2="155" y2="3" stroke="white" stroke-width="13" stroke-linecap="round" />
    <line x1="1" y1="23" x2="155" y2="23" stroke="white" stroke-width="13" stroke-linecap="square" />
    <line x1="1" y1="43" x2="155" y2="43" stroke="white" stroke-width="13" stroke-linecap="butt" />
  </g>
  
</svg>
